<svg xmlns="http://www.w3.org/2000/svg" xmlns:xlink="http://www.w3.org/1999/xlink" width="500" zoomAndPan="magnify" viewBox="0 0 375 374.999991" height="500" preserveAspectRatio="xMidYMid meet" version="1.0"><defs><clipPath id="f282cd54ed"><path d="M 5.398438 154 L 74 154 L 74 223.921875 L 5.398438 223.921875 Z M 5.398438 154 " clip-rule="nonzero"/></clipPath><clipPath id="7bc005423e"><path d="M 5.398438 151.171875 L 120 151.171875 L 120 223.921875 L 5.398438 223.921875 Z M 5.398438 151.171875 " clip-rule="nonzero"/></clipPath><clipPath id="217ec95438"><path d="M 5.398438 166 L 61 166 L 61 223.921875 L 5.398438 223.921875 Z M 5.398438 166 " clip-rule="nonzero"/></clipPath><clipPath id="eaa00291eb"><path d="M 5.398438 154 L 96 154 L 96 223.921875 L 5.398438 223.921875 Z M 5.398438 154 " clip-rule="nonzero"/></clipPath><clipPath id="310063ddd0"><path d="M 10 166 L 84 166 L 84 223.921875 L 10 223.921875 Z M 10 166 " clip-rule="nonzero"/></clipPath><clipPath id="e12a881f7a"><path d="M 5.398438 151.171875 L 101 151.171875 L 101 223.921875 L 5.398438 223.921875 Z M 5.398438 151.171875 " clip-rule="nonzero"/></clipPath><clipPath id="f5e3a454d6"><path d="M 5.398438 167 L 107 167 L 107 223.921875 L 5.398438 223.921875 Z M 5.398438 167 " clip-rule="nonzero"/></clipPath></defs><g clip-path="url(#f282cd54ed)"><path stroke-linecap="round" transform="matrix(2.34375, 0, 0, 2.346774, 5.400004, 151.171864)" fill="none" stroke-linejoin="miter" d="M 8.122665 24.861263 C 9.597666 24.861263 10.790999 23.667802 10.790999 22.194703 C 10.790999 20.719939 9.597666 19.526479 8.122665 19.526479 C 6.649332 19.526479 5.455999 20.719939 5.455999 22.194703 C 5.455999 23.667802 6.649332 24.861263 8.122665 24.861263 Z M 8.122665 24.861263 " stroke="#0aad0a" stroke-width="1.283" stroke-opacity="1" stroke-miterlimit="10"/></g><path stroke-linecap="round" transform="matrix(2.34375, 0, 0, 2.346774, 5.400004, 151.171864)" fill="none" stroke-linejoin="miter" d="M 6.975999 9.189815 L 23.114333 9.189815 " stroke="#0aad0a" stroke-width="1.283" stroke-opacity="1" stroke-miterlimit="10"/><path stroke-linecap="round" transform="matrix(2.34375, 0, 0, 2.346774, 5.400004, 151.171864)" fill="none" stroke-linejoin="miter" d="M 8.389332 12.417317 L 22.409333 12.417317 " stroke="#0aad0a" stroke-width="1.283" stroke-opacity="1" stroke-miterlimit="10"/><g clip-path="url(#7bc005423e)"><path stroke-linecap="round" transform="matrix(2.34375, 0, 0, 2.346774, 5.400004, 151.171864)" fill="none" stroke-linejoin="miter" d="M 7.660999 19.524814 L 18.114333 19.524814 C 19.259333 19.524814 20.277666 18.797419 20.651 17.713817 L 24.959333 5.181653 C 25.331 4.098051 26.349333 3.370656 27.496 3.370656 L 30.629334 3.370656 " stroke="#0aad0a" stroke-width="1.283" stroke-opacity="1" stroke-miterlimit="10"/></g><g clip-path="url(#217ec95438)"><path stroke-linecap="round" transform="matrix(2.34375, 0, 0, 2.346774, 5.400004, 151.171864)" fill="none" stroke-linejoin="miter" d="M 8.124332 22.579207 C 8.335999 22.579207 8.509332 22.406097 8.509332 22.194703 C 8.509332 21.981645 8.335999 21.808535 8.124332 21.808535 C 7.910999 21.808535 7.737665 21.981645 7.737665 22.194703 C 7.737665 22.406097 7.910999 22.579207 8.124332 22.579207 Z M 8.124332 22.579207 " stroke="#0aad0a" stroke-width="1.069" stroke-opacity="1" stroke-miterlimit="10"/></g><g clip-path="url(#eaa00291eb)"><path stroke-linecap="round" transform="matrix(2.34375, 0, 0, 2.346774, 5.400004, 151.171864)" fill="none" stroke-linejoin="miter" d="M 17.822666 24.861263 C 19.295999 24.861263 20.489333 23.667802 20.489333 22.194703 C 20.489333 20.719939 19.295999 19.526479 17.822666 19.526479 C 16.349333 19.526479 15.154333 20.719939 15.154333 22.194703 C 15.154333 23.667802 16.349333 24.861263 17.822666 24.861263 Z M 17.822666 24.861263 " stroke="#0aad0a" stroke-width="1.283" stroke-opacity="1" stroke-miterlimit="10"/></g><g clip-path="url(#310063ddd0)"><path stroke-linecap="round" transform="matrix(2.34375, 0, 0, 2.346774, 5.400004, 151.171864)" fill="none" stroke-linejoin="miter" d="M 17.822666 22.579207 C 18.034333 22.579207 18.207666 22.406097 18.207666 22.193038 C 18.207666 21.981645 18.034333 21.808535 17.822666 21.808535 C 17.609333 21.808535 17.437666 21.981645 17.437666 22.193038 C 17.437666 22.406097 17.609333 22.579207 17.822666 22.579207 Z M 17.822666 22.579207 " stroke="#0aad0a" stroke-width="1.069" stroke-opacity="1" stroke-miterlimit="10"/></g><g clip-path="url(#e12a881f7a)"><path stroke-linecap="round" transform="matrix(2.34375, 0, 0, 2.346774, 5.400004, 151.171864)" fill="none" stroke-linejoin="miter" d="M 21.187666 16.152498 L 7.147665 16.152498 C 6.677665 16.152498 6.265999 15.826253 6.135999 15.351865 L 3.754332 6.62812 C 3.635998 6.19368 3.947665 5.759241 4.379332 5.759241 L 22.377666 5.759241 " stroke="#0aad0a" stroke-width="1.283" stroke-opacity="1" stroke-miterlimit="10"/></g><g clip-path="url(#f5e3a454d6)"><path stroke-linecap="round" transform="matrix(2.34375, 0, 0, 2.346774, 5.400004, 151.171864)" fill="none" stroke-linejoin="miter" d="M 0.999332 26.527446 C 0.999332 26.527446 11.259332 23.055259 25.106 26.527446 " stroke="#0aad0a" stroke-width="1.283" stroke-opacity="1" stroke-miterlimit="10"/></g><path fill="#21313c" d="M 91.011719 209.839844 L 91.011719 166.054688 L 119.964844 166.054688 L 119.964844 173.6875 L 100.253906 173.6875 L 100.253906 184.121094 L 118.042969 184.121094 L 118.042969 191.753906 L 100.253906 191.753906 L 100.253906 209.839844 Z M 91.011719 209.839844 " fill-opacity="1" fill-rule="nonzero"/><path fill="#21313c" d="M 123.679688 209.839844 L 123.679688 177 L 132.5 177 L 132.5 182.730469 L 132.839844 182.730469 C 133.4375 180.691406 134.441406 179.152344 135.851562 178.113281 C 137.261719 177.058594 138.882812 176.53125 140.71875 176.53125 C 141.175781 176.53125 141.667969 176.558594 142.191406 176.617188 C 142.71875 176.671875 143.183594 176.75 143.582031 176.851562 L 143.582031 184.933594 C 143.152344 184.804688 142.5625 184.691406 141.808594 184.589844 C 141.054688 184.492188 140.363281 184.441406 139.738281 184.441406 C 138.398438 184.441406 137.203125 184.734375 136.148438 185.316406 C 135.109375 185.886719 134.285156 186.6875 133.671875 187.710938 C 133.074219 188.738281 132.777344 189.921875 132.777344 191.261719 L 132.777344 209.839844 Z M 123.679688 209.839844 " fill-opacity="1" fill-rule="nonzero"/><path fill="#21313c" d="M 159.898438 210.484375 C 156.527344 210.484375 153.621094 209.796875 151.1875 208.429688 C 148.769531 207.046875 146.902344 205.09375 145.59375 202.570312 C 144.285156 200.035156 143.628906 197.035156 143.628906 193.570312 C 143.628906 190.191406 144.285156 187.226562 145.59375 184.675781 C 146.902344 182.125 148.746094 180.136719 151.125 178.710938 C 153.515625 177.285156 156.320312 176.574219 159.535156 176.574219 C 161.699219 176.574219 163.714844 176.921875 165.578125 177.621094 C 167.457031 178.304688 169.097656 179.339844 170.492188 180.722656 C 171.898438 182.105469 172.996094 183.84375 173.777344 185.9375 C 174.5625 188.019531 174.953125 190.457031 174.953125 193.25 L 174.953125 195.75 L 147.257812 195.75 L 147.257812 190.105469 L 166.390625 190.105469 C 166.390625 188.796875 166.105469 187.632812 165.535156 186.621094 C 164.96875 185.609375 164.175781 184.820312 163.167969 184.25 C 162.171875 183.664062 161.011719 183.371094 159.6875 183.371094 C 158.304688 183.371094 157.082031 183.691406 156.015625 184.335938 C 154.960938 184.960938 154.132812 185.808594 153.535156 186.878906 C 152.9375 187.933594 152.632812 189.109375 152.617188 190.40625 L 152.617188 195.773438 C 152.617188 197.398438 152.917969 198.800781 153.515625 199.984375 C 154.128906 201.167969 154.988281 202.078125 156.097656 202.722656 C 157.210938 203.363281 158.527344 203.683594 160.050781 203.683594 C 161.058594 203.683594 161.984375 203.542969 162.824219 203.257812 C 163.664062 202.972656 164.382812 202.542969 164.980469 201.972656 C 165.578125 201.402344 166.035156 200.703125 166.347656 199.878906 L 174.761719 200.433594 C 174.335938 202.457031 173.457031 204.226562 172.136719 205.734375 C 170.824219 207.234375 169.132812 208.402344 167.054688 209.242188 C 164.988281 210.070312 162.605469 210.484375 159.898438 210.484375 Z M 159.898438 210.484375 " fill-opacity="1" fill-rule="nonzero"/><path fill="#21313c" d="M 206.375 186.367188 L 198.046875 186.878906 C 197.90625 186.167969 197.597656 185.523438 197.128906 184.953125 C 196.660156 184.371094 196.039062 183.90625 195.269531 183.566406 C 194.515625 183.207031 193.613281 183.03125 192.558594 183.03125 C 191.148438 183.03125 189.960938 183.328125 188.992188 183.929688 C 188.027344 184.511719 187.542969 185.296875 187.542969 186.28125 C 187.542969 187.0625 187.855469 187.726562 188.480469 188.269531 C 189.105469 188.808594 190.183594 189.246094 191.707031 189.574219 L 197.640625 190.769531 C 200.828125 191.425781 203.207031 192.480469 204.773438 193.933594 C 206.339844 195.386719 207.121094 197.296875 207.121094 199.664062 C 207.121094 201.816406 206.488281 203.703125 205.222656 205.328125 C 203.96875 206.953125 202.246094 208.222656 200.054688 209.136719 C 197.875 210.035156 195.363281 210.484375 192.515625 210.484375 C 188.175781 210.484375 184.714844 209.578125 182.140625 207.765625 C 179.578125 205.941406 178.074219 203.460938 177.632812 200.328125 L 186.582031 199.855469 C 186.851562 201.183594 187.503906 202.195312 188.546875 202.890625 C 189.585938 203.578125 190.914062 203.917969 192.539062 203.917969 C 194.132812 203.917969 195.414062 203.613281 196.382812 203 C 197.363281 202.371094 197.863281 201.566406 197.875 200.582031 C 197.863281 199.757812 197.511719 199.078125 196.828125 198.550781 C 196.148438 198.011719 195.09375 197.597656 193.667969 197.3125 L 187.988281 196.179688 C 184.785156 195.539062 182.402344 194.425781 180.835938 192.84375 C 179.285156 191.261719 178.507812 189.246094 178.507812 186.792969 C 178.507812 184.683594 179.078125 182.867188 180.21875 181.339844 C 181.371094 179.816406 182.984375 178.640625 185.066406 177.8125 C 187.15625 176.988281 189.605469 176.574219 192.410156 176.574219 C 196.550781 176.574219 199.8125 177.449219 202.1875 179.203125 C 204.582031 180.957031 205.976562 183.34375 206.375 186.367188 Z M 206.375 186.367188 " fill-opacity="1" fill-rule="nonzero"/><path fill="#21313c" d="M 220.140625 190.855469 L 220.140625 209.839844 L 211.046875 209.839844 L 211.046875 166.054688 L 219.886719 166.054688 L 219.886719 182.796875 L 220.269531 182.796875 C 221.011719 180.855469 222.207031 179.339844 223.859375 178.242188 C 225.507812 177.128906 227.578125 176.574219 230.070312 176.574219 C 232.347656 176.574219 234.335938 177.074219 236.027344 178.070312 C 237.738281 179.054688 239.0625 180.472656 240 182.324219 C 240.953125 184.164062 241.421875 186.367188 241.410156 188.929688 L 241.410156 209.839844 L 232.3125 209.839844 L 232.3125 190.554688 C 232.328125 188.53125 231.816406 186.957031 230.777344 185.832031 C 229.75 184.703125 228.3125 184.140625 226.460938 184.140625 C 225.222656 184.140625 224.128906 184.40625 223.175781 184.933594 C 222.234375 185.460938 221.496094 186.230469 220.953125 187.242188 C 220.425781 188.238281 220.15625 189.445312 220.140625 190.855469 Z M 220.140625 190.855469 " fill-opacity="1" fill-rule="nonzero"/><path fill="#21313c" d="M 285.519531 181.382812 L 276.167969 181.382812 C 275.996094 180.171875 275.648438 179.097656 275.121094 178.15625 C 274.59375 177.199219 273.917969 176.386719 273.089844 175.71875 C 272.265625 175.046875 271.3125 174.535156 270.230469 174.179688 C 269.164062 173.824219 268.003906 173.644531 266.75 173.644531 C 264.488281 173.644531 262.515625 174.207031 260.835938 175.332031 C 259.15625 176.445312 257.851562 178.070312 256.929688 180.207031 C 256.003906 182.332031 255.539062 184.910156 255.539062 187.949219 C 255.539062 191.070312 256.003906 193.691406 256.929688 195.816406 C 257.867188 197.9375 259.175781 199.542969 260.855469 200.625 C 262.539062 201.710938 264.480469 202.25 266.6875 202.25 C 267.925781 202.25 269.070312 202.085938 270.125 201.757812 C 271.191406 201.429688 272.136719 200.953125 272.964844 200.328125 C 273.789062 199.6875 274.472656 198.910156 275.011719 197.996094 C 275.570312 197.085938 275.953125 196.042969 276.167969 194.875 L 285.519531 194.917969 C 285.277344 196.925781 284.671875 198.867188 283.703125 200.734375 C 282.75 202.585938 281.464844 204.246094 279.839844 205.714844 C 278.230469 207.167969 276.308594 208.324219 274.074219 209.179688 C 271.855469 210.019531 269.339844 210.441406 266.535156 210.441406 C 262.636719 210.441406 259.148438 209.554688 256.074219 207.789062 C 253.011719 206.019531 250.59375 203.460938 248.816406 200.113281 C 247.050781 196.761719 246.167969 192.707031 246.167969 187.949219 C 246.167969 183.171875 247.0625 179.109375 248.855469 175.761719 C 250.648438 172.410156 253.085938 169.859375 256.160156 168.105469 C 259.234375 166.339844 262.691406 165.457031 266.535156 165.457031 C 269.070312 165.457031 271.421875 165.8125 273.582031 166.523438 C 275.761719 167.238281 277.691406 168.277344 279.371094 169.644531 C 281.046875 171 282.417969 172.660156 283.46875 174.628906 C 284.539062 176.59375 285.21875 178.847656 285.519531 181.382812 Z M 285.519531 181.382812 " fill-opacity="1" fill-rule="nonzero"/><path fill="#21313c" d="M 299.527344 210.460938 C 297.433594 210.460938 295.570312 210.097656 293.933594 209.371094 C 292.296875 208.628906 291 207.539062 290.046875 206.097656 C 289.105469 204.644531 288.636719 202.835938 288.636719 200.667969 C 288.636719 198.84375 288.972656 197.3125 289.640625 196.070312 C 290.3125 194.832031 291.21875 193.835938 292.375 193.078125 C 293.527344 192.324219 294.835938 191.753906 296.304688 191.367188 C 297.78125 190.984375 299.335938 190.714844 300.957031 190.554688 C 302.867188 190.355469 304.402344 190.171875 305.570312 190 C 306.738281 189.816406 307.585938 189.542969 308.113281 189.1875 C 308.636719 188.832031 308.902344 188.304688 308.902344 187.605469 L 308.902344 187.476562 C 308.902344 186.125 308.476562 185.074219 307.621094 184.335938 C 306.78125 183.59375 305.585938 183.222656 304.035156 183.222656 C 302.394531 183.222656 301.09375 183.585938 300.125 184.3125 C 299.15625 185.027344 298.515625 185.921875 298.203125 187.007812 L 289.789062 186.324219 C 290.21875 184.328125 291.054688 182.601562 292.308594 181.148438 C 293.5625 179.679688 295.179688 178.554688 297.15625 177.769531 C 299.148438 176.972656 301.457031 176.574219 304.074219 176.574219 C 305.898438 176.574219 307.640625 176.789062 309.308594 177.214844 C 310.988281 177.640625 312.472656 178.304688 313.769531 179.203125 C 315.078125 180.101562 316.109375 181.253906 316.867188 182.667969 C 317.621094 184.0625 317.996094 185.738281 317.996094 187.691406 L 317.996094 209.839844 L 309.371094 209.839844 L 309.371094 205.285156 L 309.113281 205.285156 C 308.585938 206.3125 307.882812 207.21875 307 208.003906 C 306.117188 208.773438 305.058594 209.378906 303.816406 209.820312 C 302.582031 210.246094 301.152344 210.460938 299.527344 210.460938 Z M 302.132812 204.175781 C 303.472656 204.175781 304.652344 203.910156 305.675781 203.382812 C 306.699219 202.84375 307.507812 202.117188 308.089844 201.203125 C 308.675781 200.292969 308.964844 199.257812 308.964844 198.101562 L 308.964844 194.617188 C 308.679688 194.804688 308.289062 194.976562 307.789062 195.132812 C 307.308594 195.273438 306.757812 195.410156 306.148438 195.539062 C 305.535156 195.652344 304.921875 195.757812 304.308594 195.859375 C 303.699219 195.945312 303.144531 196.023438 302.644531 196.09375 C 301.578125 196.25 300.644531 196.5 299.847656 196.84375 C 299.050781 197.183594 298.433594 197.648438 297.988281 198.230469 C 297.546875 198.800781 297.328125 199.515625 297.328125 200.371094 C 297.328125 201.609375 297.777344 202.558594 298.671875 203.214844 C 299.585938 203.855469 300.738281 204.175781 302.132812 204.175781 Z M 302.132812 204.175781 " fill-opacity="1" fill-rule="nonzero"/><path fill="#21313c" d="M 323.25 209.839844 L 323.25 177 L 332.070312 177 L 332.070312 182.730469 L 332.410156 182.730469 C 333.007812 180.691406 334.011719 179.152344 335.421875 178.113281 C 336.832031 177.058594 338.453125 176.53125 340.289062 176.53125 C 340.746094 176.53125 341.234375 176.558594 341.761719 176.617188 C 342.289062 176.671875 342.753906 176.75 343.152344 176.851562 L 343.152344 184.933594 C 342.722656 184.804688 342.132812 184.691406 341.378906 184.589844 C 340.625 184.492188 339.933594 184.441406 339.308594 184.441406 C 337.96875 184.441406 336.773438 184.734375 335.722656 185.316406 C 334.679688 185.886719 333.855469 186.6875 333.242188 187.710938 C 332.644531 188.738281 332.347656 189.921875 332.347656 191.261719 L 332.347656 209.839844 Z M 323.25 209.839844 " fill-opacity="1" fill-rule="nonzero"/><path fill="#21313c" d="M 365.140625 177 L 365.140625 183.84375 L 345.390625 183.84375 L 345.390625 177 Z M 349.871094 169.132812 L 358.96875 169.132812 L 358.96875 199.75 C 358.96875 200.589844 359.097656 201.246094 359.351562 201.714844 C 359.609375 202.171875 359.964844 202.492188 360.421875 202.679688 C 360.890625 202.863281 361.433594 202.957031 362.042969 202.957031 C 362.46875 202.957031 362.898438 202.921875 363.324219 202.851562 C 363.753906 202.765625 364.078125 202.699219 364.308594 202.65625 L 365.738281 209.433594 C 365.28125 209.578125 364.640625 209.742188 363.816406 209.925781 C 362.992188 210.125 361.988281 210.246094 360.804688 210.289062 C 358.613281 210.375 356.691406 210.082031 355.039062 209.414062 C 353.402344 208.742188 352.128906 207.703125 351.21875 206.292969 C 350.304688 204.878906 349.859375 203.097656 349.871094 200.945312 Z M 349.871094 169.132812 " fill-opacity="1" fill-rule="nonzero"/></svg>